<?xml version="1.0" encoding="utf-8"?>
<!-- Generator: Adobe Illustrator 25.3.1, SVG Export Plug-In . SVG Version: 6.00 Build 0)  -->
<svg version="1.1"
	 id="svg4009" xmlns:cc="http://creativecommons.org/ns#" xmlns:dc="http://purl.org/dc/elements/1.1/" xmlns:rdf="http://www.w3.org/1999/02/22-rdf-syntax-ns#" xmlns:svg="http://www.w3.org/2000/svg"
	 xmlns="http://www.w3.org/2000/svg" xmlns:xlink="http://www.w3.org/1999/xlink" x="0px" y="0px" viewBox="0 0 250 160"
	 style="enable-background:new 0 0 250 160;" xml:space="preserve">
<style type="text/css">
	.st0{fill:none;}
	.st1{fill:#BABABA;}
</style>
<path class="st0" d="M185,30c0,0,0.9,0,2,0"/>
<path class="st0" d="M186,147c0,0,0.4,0,1,0"/>
<g id="layer1" transform="translate(114.03511,-21.377846)">
	<g id="text4487" transform="scale(1.0097625,0.99033189)">
		<path id="path4489" class="st1" d="M-77.3,30H23.3v5.8l-43.5,35.7v35.9h-13.7V71.5l-43.4-35.7V30z M-20.2,59.7L8.9,38.3h-29.1
			V59.7z M-63,38.3l29.1,21.4V38.3H-63z M95,178.5H66.5V70.1H95V178.5z M59.3,178.5H30.7V93.9h28.5L59.3,178.5z M23.3,178.5H-5.3
			V125h28.6L23.3,178.5z M-12.8,178.6h-28.5v-29.9h28.5L-12.8,178.6z"/>
	</g>
</g>
</svg>
