<?xml version="1.0" encoding="UTF-8"?>
<svg id="svg3852" xmlns="http://www.w3.org/2000/svg" version="1.1" xmlns:cc="http://creativecommons.org/ns#" xmlns:dc="http://purl.org/dc/elements/1.1/" xmlns:inkscape="http://www.inkscape.org/namespaces/inkscape" xmlns:rdf="http://www.w3.org/1999/02/22-rdf-syntax-ns#" xmlns:sodipodi="http://sodipodi.sourceforge.net/DTD/sodipodi-0.dtd" xmlns:svg="http://www.w3.org/2000/svg" viewBox="0 0 72 72">
  <!-- Generator: Adobe Illustrator 29.7.1, SVG Export Plug-In . SVG Version: 2.1.1 Build 8)  -->
  <defs>
    <style>
      .st0 {
        stroke-width: 1.5px;
      }

      .st0, .st1, .st2 {
        fill: #fff;
      }

      .st0, .st3, .st2, .st4, .st5, .st6, .st7 {
        stroke-linecap: round;
        stroke-linejoin: round;
      }

      .st0, .st2, .st4, .st7 {
        stroke: #fff;
      }

      .st3 {
        stroke-width: .25px;
      }

      .st3, .st4, .st5, .st6, .st7 {
        fill: none;
      }

      .st3, .st5 {
        stroke: #eb008b;
      }

      .st2 {
        stroke-width: 1.5px;
      }

      .st4 {
        stroke-width: 3.9px;
      }

      .st8 {
        display: none;
      }

      .st5 {
        stroke-width: .25px;
      }

      .st6 {
        stroke: #224a80;
        stroke-width: 3px;
      }

      .st7 {
        stroke-width: 4.5px;
      }
    </style>
  </defs>
  <sodipodi:namedview id="namedview3929" bordercolor="#666666" borderopacity="1" gridtolerance="10" guidetolerance="10" inkscape:current-layer="svg3852" inkscape:cx="55" inkscape:cy="55" inkscape:pageopacity="0" inkscape:pageshadow="2" inkscape:window-height="480" inkscape:window-width="640" inkscape:zoom="11.136364" objecttolerance="10" pagecolor="#808080" showgrid="false"/>
  <g id="Layer_2_copy_4" class="st8">
    <g id="g3861">
      <rect id="rect3863" class="st5" x="-36.1" y="-131.3" width="56.3" height="56.3"/>
      <circle id="circle3865" class="st3" cx="-8" cy="-103.21" r="28.2"/>
    </g>
    <g id="g3867">
      <rect id="rect3869" class="st5" x="28.3" y="-131.3" width="56.3" height="56.3"/>
      <circle id="circle3871" class="st5" cx="56.5" cy="-103.2" r="28.2"/>
    </g>
    <g id="g3873">
      <rect id="rect3875" class="st5" x="91.5" y="-131.3" width="56.3" height="56.3"/>
      <circle id="circle3877" class="st5" cx="119.7" cy="-103.2" r="28.2"/>
    </g>
  </g>
  <rect id="rect3882" class="st0" x="4.45" y="45.39" width="22.3" height="11.1" transform="translate(-31.45 25.95) rotate(-45)"/>
  <rect id="rect3884" class="st0" x="39.91" y="10" width="22.3" height="11.1" transform="translate(3.96 40.66) rotate(-45)"/>
  <path id="path3886" class="st2" d="M19.5,19.4c-3.2,3.2-3.2,8.6,0,11.8l15.8,15.7,11.8-11.8-15.7-15.7c-3.3-3.2-8.6-3.2-11.9,0Z" inkscape:connector-curvature="0"/>
  <path id="path3888" class="st2" d="M41.2,41.1c-4.3,4.3-4.3,11.4,0,15.7l15.7-15.7c-4.3-4.3-11.4-4.3-15.7,0Z" inkscape:connector-curvature="0"/>
  <path id="path3890" class="st4" d="M42.9,64.3c5.7,5.7,15,5.7,20.7,0s5.7-15,0-20.7" inkscape:connector-curvature="0"/>
  <path id="path3892" class="st4" d="M48.1,57.4c2.5,2.5,6.4,2.5,8.9,0s2.5-6.4,0-8.9" inkscape:connector-curvature="0"/>
  <line id="line3894" class="st7" x1="23.5" y1="43" x2="27.5" y2="39.1"/>
  <line id="line3896" class="st7" x1="39.3" y1="27.3" x2="43.2" y2="23.4"/>
  <g id="Layer_2_copy_2" class="st8">
    <g id="g3905">
      <rect id="rect3907" class="st5" x="-36.1" y="-26.7" width="56.3" height="56.3"/>
      <circle id="circle3909" class="st3" cx="-8" cy="1.5" r="28.2"/>
    </g>
    <g id="g3911">
      <rect id="rect3913" class="st5" x="28.3" y="-26.7" width="56.3" height="56.3"/>
      <circle id="circle3915" class="st5" cx="56.5" cy="1.5" r="28.2"/>
    </g>
    <g id="g3917">
      <rect id="rect3919" class="st5" x="91.5" y="-26.7" width="56.3" height="56.3"/>
      <circle id="circle3921" class="st5" cx="119.7" cy="1.5" r="28.2"/>
    </g>
  </g>
  <g id="Layer_6" class="st8">
    <polygon id="polygon3927" class="st6" points="-14.6 1.2 -19.5 1.2 -19.5 42.2 3.4 42.2 3.4 1.2 -1.5 1.2 -1.5 -5.3 -14.6 -5.3 -14.6 1.2"/>
  </g>
  <path class="st1" d="M.47,21.96v-2.97l2.71-2.45c4.58-4.1,6.8-6.45,6.87-8.9,0-1.71-1.03-3.06-3.45-3.06-1.81,0-3.39.9-4.48,1.74L.73,2.81C2.31,1.62,4.76.65,7.6.65c4.74,0,7.35,2.77,7.35,6.58,0,3.51-2.55,6.32-5.58,9.03l-1.94,1.61v.06h7.9v4.03s-14.86,0-14.86,0Z"/>
</svg>