<?xml version="1.0" encoding="utf-8"?>
<!-- Generator: Adobe Illustrator 27.9.0, SVG Export Plug-In . SVG Version: 6.00 Build 0)  -->
<svg version="1.1" id="road-icon" xmlns="http://www.w3.org/2000/svg" xmlns:xlink="http://www.w3.org/1999/xlink" x="0px" y="0px"
	 viewBox="0 0 72 72" style="enable-background:new 0 0 72 72;" xml:space="preserve">
<style type="text/css">
	.st0{fill:#FFFFFF;}
	.st1{fill:#FFFFFF;stroke:#FFFFFF;stroke-width:9;stroke-linecap:round;stroke-miterlimit:10;}
</style>
<g>
	<polygon class="st0" points="8.5,8.1 7.5,10.1 9.5,10.1 	"/>
	<path class="st0" d="M8.5,0C3.8,0,0,3.8,0,8.5c0,5.8,7.7,15.6,8,16c0.1,0.2,0.3,0.3,0.5,0.3l0,0c0.2,0,0.4-0.1,0.5-0.3
		c0.3-0.4,7.9-10.3,7.9-16C17,3.8,13.2,0,8.5,0z M12.5,13.1h-1.4c-0.2,0-0.3-0.1-0.4-0.3l-0.5-1H6.8l-0.5,1
		c-0.1,0.2-0.2,0.3-0.5,0.3H4.4c-0.2,0-0.3-0.2-0.2-0.3l3.9-8.5c0-0.1,0.1-0.1,0.2-0.1h0.1c0.1,0,0.2,0.1,0.2,0.1l3.9,8.5
		C12.8,13,12.7,13.1,12.5,13.1z"/>
</g>
<g>
	<path class="st0" d="M57.3,19.4c-8,0-14.6,6.6-14.6,14.6c0,9.9,13.2,26.8,13.7,27.5c0.2,0.3,0.6,0.4,0.9,0.4l0,0
		c0.4,0,0.7-0.2,0.9-0.4c0.6-0.7,13.6-17.6,13.6-27.5C71.9,26,65.4,19.4,57.3,19.4z M57.8,41.7h-5.3c-0.2,0-0.4-0.2-0.4-0.4V27
		c0-0.2,0.2-0.4,0.4-0.4h5c2.5,0,4.6,1.7,4.6,4c0,1.7-1.5,2.9-2.5,3.4c1.1,0.5,2.9,1.5,2.9,3.5C62.5,39.9,60.4,41.7,57.8,41.7z"/>
	<path class="st0" d="M57.2,35.5h-1.7v3.1h2c0.8,0,1.5-0.7,1.5-1.6C59,36.2,58,35.5,57.2,35.5z"/>
	<path class="st0" d="M58.6,31.2c0-0.9-0.7-1.5-1.5-1.5h-1.7v3h1.7C58,32.7,58.6,32,58.6,31.2z"/>
</g>
<path class="st1" d="M65.2,33"/>
<path class="st0" d="M57.7,65.5L18.8,44.2l9-4.8c0.9-0.5,1.4-1.5,1.3-2.5c-0.1-1-0.7-1.9-1.6-2.4c0,0-16.1-7.2-17.2-7.7
	c-0.8-0.3-1.9-0.3-2.3-0.2c-1.2,0.3-2,1-2,1.8c0,1.2,2.1,1.9,2.4,2.1l15.3,6.7l-11.3,4.7c-0.9,0.5-1.4,1.5-1.3,2.5
	c0,1,0.6,1.9,1.5,2.4l39.3,23.6c1.3,0.6,2.8,1.7,5.1,1.7c0.2,0,0.4,0,0.6,0c0,0,0,0,0.1,0c0.3,0,0.5,0,0.8-0.1
	c1.9-0.4,3.3-1.5,3.3-2.8C61.8,67.6,60,66.7,57.7,65.5z"/>
</svg>
