<?xml version="1.0" encoding="utf-8"?>
<!-- Generator: Adobe Illustrator 25.3.1, SVG Export Plug-In . SVG Version: 6.00 Build 0)  -->
<svg version="1.1"
	 id="svg4009" xmlns:cc="http://creativecommons.org/ns#" xmlns:dc="http://purl.org/dc/elements/1.1/" xmlns:rdf="http://www.w3.org/1999/02/22-rdf-syntax-ns#" xmlns:svg="http://www.w3.org/2000/svg"
	 xmlns="http://www.w3.org/2000/svg" xmlns:xlink="http://www.w3.org/1999/xlink" x="0px" y="0px" viewBox="0 0 250 160"
	 style="enable-background:new 0 0 250 160;" xml:space="preserve">
<style type="text/css">
	.st0{fill:#BAB9B9;}
</style>
<g id="layer1">
	<path id="path4391" class="st0" d="M123.6,39.8c-21.9,0.1-43.8,8.3-60.6,24.6l15.2,15.1c25.1-24.4,65.6-24.6,90.9-0.3l15.2-15.2
		C167.5,47.7,145.5,39.7,123.6,39.8L123.6,39.8z M78.2,79.5L78.2,79.5L78.2,79.5z"/>
	<path id="path4395" class="st0" d="M123.6,7.6C93.3,7.7,63.1,19.1,40,41.6l15.1,14.9C93,19.8,153.9,19.6,192,56.1l15.4-15.2
		C184.1,18.6,153.8,7.5,123.6,7.6z M55.1,56.5L55,56.6L55.1,56.5z"/>
	<path id="path4381" class="st0" d="M123.6,71.8c-13.7,0.1-27.3,5.2-37.7,15.3l14.6,14.4c12.9-12.5,33.6-12.6,46.5-0.2l14.5-14.5
		C150.9,76.8,137.2,71.8,123.6,71.8L123.6,71.8z M100.4,101.5L100.4,101.5L100.4,101.5z"/>
	<path id="path4411" class="st0" d="M108.6,139.7c-8.4-8.4-8.4-21.9,0-30.3c8.4-8.4,21.9-8.4,30.3,0c8.4,8.4,8.4,21.9,0,30.3
		C130.5,148.1,117,148.1,108.6,139.7l15.1-15.1L108.6,139.7z"/>
</g>
</svg>
