<?xml version="1.0" encoding="utf-8"?>
<!-- Generator: Adobe Illustrator 26.5.0, SVG Export Plug-In . SVG Version: 6.00 Build 0)  -->
<svg version="1.1"
	 id="Layer_1" xmlns:inkscape="http://www.inkscape.org/namespaces/inkscape" xmlns:sodipodi="http://sodipodi.sourceforge.net/DTD/sodipodi-0.dtd" xmlns:osb="http://www.openswatchbook.org/uri/2009/osb" xmlns:rdf="http://www.w3.org/1999/02/22-rdf-syntax-ns#" xmlns:svg="http://www.w3.org/2000/svg" xmlns:cc="http://creativecommons.org/ns#" xmlns:dc="http://purl.org/dc/elements/1.1/"
	 xmlns="http://www.w3.org/2000/svg" xmlns:xlink="http://www.w3.org/1999/xlink" x="0px" y="0px" viewBox="0 0 72 72"
	 style="enable-background:new 0 0 72 72;" xml:space="preserve">
<style type="text/css">
	.st0{fill:#FFFFFF;}
	
		.st1{fill:none;stroke:url(#polyline3410_00000027602645630360934080000015014951675702152114_);stroke-width:4.278;stroke-linecap:round;stroke-linejoin:round;stroke-miterlimit:8.5559;}
	.st2{fill:none;stroke:url(#path3339_00000147206392945230880740000016899046812453834924_);stroke-width:3.2596;}
</style>
<sodipodi:namedview  bordercolor="#666666" borderopacity="1" gridtolerance="10" guidetolerance="10" id="namedview3412" inkscape:current-layer="Layer_1" inkscape:cx="-54.305085" inkscape:cy="36" inkscape:pageopacity="0" inkscape:pageshadow="2" inkscape:window-height="1056" inkscape:window-maximized="1" inkscape:window-width="1855" inkscape:window-x="65" inkscape:window-y="24" inkscape:zoom="3.2777778" objecttolerance="10" pagecolor="#000000" showgrid="false">
	</sodipodi:namedview>
<path class="st0" d="M61.5,49.6L22.6,28.3l9-4.8C32.5,23,33,22,32.9,21c-0.1-1-0.7-1.9-1.6-2.4c0,0-16.1-7.2-17.2-7.7
	c-0.8-0.3-1.9-0.3-2.3-0.2c-1.2,0.3-2,1-2,1.8c0,1.2,2.1,1.9,2.4,2.1l15.3,6.7L16.2,26c-0.9,0.5-1.4,1.5-1.3,2.5
	c0,1,0.6,1.9,1.5,2.4l39.3,23.6c1.3,0.6,2.8,1.7,5.1,1.7c0.2,0,0.4,0,0.6,0c0,0,0,0,0.1,0c0.3,0,0.5,0,0.8-0.1
	c1.9-0.4,3.3-1.5,3.3-2.8C65.6,51.7,63.8,50.8,61.5,49.6z"/>
<linearGradient id="polyline3410_00000100379200018474294620000007986392500642465957_" gradientUnits="userSpaceOnUse" x1="16.3132" y1="36.2715" x2="54.9861" y2="36.2715">
	<stop  offset="0" style="stop-color:#FFFFFF"/>
	<stop  offset="1" style="stop-color:#000000"/>
</linearGradient>
<line id="polyline3410_00000140723807704924179740000013090718394614322326_" style="fill:none;stroke:url(#polyline3410_00000100379200018474294620000007986392500642465957_);stroke-width:4.278;stroke-linecap:round;stroke-linejoin:round;stroke-miterlimit:8.5559;" x1="52.8" y1="16.3" x2="18.5" y2="56.2"/>
<linearGradient id="path3339_00000168117342221663808210000001058965760121892262_" gradientUnits="userSpaceOnUse" x1="-373.245" y1="294.0979" x2="-342.4314" y2="294.0979" gradientTransform="matrix(1.8414 0 0 -2.2408 694.4382 695.6241)">
	<stop  offset="0" style="stop-color:#FFFFFF"/>
	<stop  offset="1" style="stop-color:#000000"/>
</linearGradient>
<circle id="path3339" style="fill:none;stroke:url(#path3339_00000168117342221663808210000001058965760121892262_);stroke-width:3.2596;" cx="35.5" cy="36.6" r="28.4"/>
</svg>
