<?xml version="1.0" encoding="utf-8"?>
<!-- Generator: Adobe Illustrator 27.9.0, SVG Export Plug-In . SVG Version: 6.00 Build 0)  -->
<svg version="1.1"
	 id="Layer_1" xmlns:cc="http://creativecommons.org/ns#" xmlns:rdf="http://www.w3.org/1999/02/22-rdf-syntax-ns#" xmlns:osb="http://www.openswatchbook.org/uri/2009/osb" xmlns:inkscape="http://www.inkscape.org/namespaces/inkscape" xmlns:dc="http://purl.org/dc/elements/1.1/" xmlns:sodipodi="http://sodipodi.sourceforge.net/DTD/sodipodi-0.dtd" xmlns:svg="http://www.w3.org/2000/svg"
	 xmlns="http://www.w3.org/2000/svg" xmlns:xlink="http://www.w3.org/1999/xlink" x="0px" y="0px" viewBox="0 0 72 72"
	 style="enable-background:new 0 0 72 72;" xml:space="preserve">
<style type="text/css">
	.st0{fill:#FFFFFF;stroke:#000000;stroke-width:4.1854;stroke-miterlimit:10;}
	.st1{fill:none;stroke:#000000;stroke-width:4;stroke-miterlimit:10;}
	.st2{fill:#FFFFFF;}
	.st3{fill:#FFFFFF;stroke:#000000;stroke-width:3;stroke-miterlimit:10;}
</style>
<sodipodi:namedview  bordercolor="#666666" borderopacity="1" gridtolerance="10" guidetolerance="10" id="namedview3412" inkscape:current-layer="Layer_1" inkscape:cx="-54.305085" inkscape:cy="36" inkscape:pageopacity="0" inkscape:pageshadow="2" inkscape:window-height="1056" inkscape:window-maximized="1" inkscape:window-width="1855" inkscape:window-x="65" inkscape:window-y="24" inkscape:zoom="3.2777778" objecttolerance="10" pagecolor="#000000" showgrid="false">
	</sodipodi:namedview>
<line id="polyline3410_00000140723807704924179740000013090718394614322326_" class="st0" x1="52.8" y1="16.3" x2="17" y2="58.2"/>
<circle id="path3339" class="st1" cx="35.5" cy="36.6" r="28.4"/>
<g>
	<path class="st2" d="M18,27.1c0,0.4,0,20.6,0,20.6"/>
	<path d="M19,47.7h-2.1c-0.3,0-0.5-0.2-0.5-0.5V27.5c0-0.3,0.2-0.5,0.5-0.5H19c0.3,0,0.5,0.2,0.5,0.5v19.7
		C19.5,47.5,19.3,47.7,19,47.7z"/>
</g>
<g>
	<path class="st2" d="M54.2,26.9c0,0.4,0,20.6,0,20.6"/>
	<path d="M55.2,47.5h-2.1c-0.3,0-0.5-0.2-0.5-0.5V27.4c0-0.3,0.2-0.5,0.5-0.5h2.1c0.3,0,0.5,0.2,0.5,0.5v19.7
		C55.7,47.3,55.5,47.5,55.2,47.5z"/>
</g>
<path class="st3" d="M18.4,37.2c0.6,0,35.8,0,35.8,0"/>
</svg>
