<?xml version="1.0" encoding="utf-8"?>
<!-- Generator: Adobe Illustrator 26.5.0, SVG Export Plug-In . SVG Version: 6.00 Build 0)  -->
<svg version="1.1" id="Layer_1" xmlns="http://www.w3.org/2000/svg" xmlns:xlink="http://www.w3.org/1999/xlink" x="0px" y="0px"
	 viewBox="0 0 324 140" style="enable-background:new 0 0 324 140;" xml:space="preserve">
<style type="text/css">
	.st0{fill:none;stroke:#CCCCCC;stroke-width:14;stroke-miterlimit:10;}
	.st1{fill:#CCCCCC;}
</style>
<g>
	<g>
		<line class="st0" x1="151.8" y1="70" x2="204.2" y2="70"/>
		<g>
			<polygon class="st1" points="156.4,38.5 136.5,70 156.4,101.5 156.6,101.5 156.6,38.5 			"/>
		</g>
		<g>
			<polygon class="st1" points="199.6,38.5 219.5,70 199.6,101.5 199.4,101.5 199.4,38.5 			"/>
		</g>
	</g>
</g>
<path class="st1" d="M133.6,95.4V83.8l-53.8-37l0.9-32.5c0-7.5-6.1-13.5-13.5-13.5c-7.5,0-13.5,6.1-13.5,13.5l0.9,32.5l-53.8,37
	v11.6l54.6-18.2l1.2,43.3l-11.4,7.6v12.1l22-9.8l22,9.8v-12.1l-11.4-7.6L79,77.2L133.6,95.4z"/>
<path class="st1" d="M273.7,138.1c0,0-47.7-62.2-47.7-88.5c0-26.3,21.3-47.7,47.7-47.7s47.7,21.3,47.7,47.7
	C321.4,75.9,273.7,138.1,273.7,138.1z M273.7,63.2c7.5,0,13.6-6.1,13.6-13.6S281.3,36,273.7,36c-7.5,0-13.6,6.1-13.6,13.6
	S266.2,63.2,273.7,63.2z"/>
</svg>
