<?xml version="1.0" encoding="utf-8"?>
<!-- Generator: Adobe Illustrator 26.5.0, SVG Export Plug-In . SVG Version: 6.00 Build 0)  -->
<svg version="1.1" id="Layer_1" xmlns="http://www.w3.org/2000/svg" xmlns:xlink="http://www.w3.org/1999/xlink" x="0px" y="0px"
	 viewBox="0 0 40 40" style="enable-background:new 0 0 40 40;" xml:space="preserve">
<style type="text/css">
	.st0{fill:#D6D6D6;}
</style>
<path class="st0" d="M32.5,14.3c5.3,6.9,4.1,16.8-2.8,22.2s-16.8,4.1-22.2-2.8s-4.1-16.8,2.8-22.2c2.2-1.7,4.9-2.8,7.7-3.2V4.2h4
	v4.1c2.9,0.4,5.5,1.5,7.7,3.2l2.9-2.9l2.8,2.8L32.5,14.3L32.5,14.3z M20,35.8c6.5,0,11.9-5.3,11.9-11.9S26.6,12.1,20,12.1
	S8.2,17.4,8.2,24S13.5,35.8,20,35.8z M14.1,0.2h11.9v4H14.1V0.2z M24.2,17l2.8,2.8l-7,7L17.2,24L24.2,17z"/>
</svg>
