<?xml version="1.0" encoding="utf-8"?>
<!-- Generator: Adobe Illustrator 26.5.0, SVG Export Plug-In . SVG Version: 6.00 Build 0)  -->
<svg version="1.1" id="Layer_1" xmlns="http://www.w3.org/2000/svg" xmlns:xlink="http://www.w3.org/1999/xlink" x="0px" y="0px"
	 viewBox="0 0 40 40" style="enable-background:new 0 0 40 40;" xml:space="preserve">
<style type="text/css">
	.st0{fill:#D6D6D6;}
</style>
<path class="st0" d="M26,35.9h2v4H0.1v-4h2V4.1c0-2.2,1.8-4,4-4H22c2.2,0,4,1.8,4,4V35.9z M6.1,4.1V16H22V4.1H6.1z M26,20h2
	c2.2,0,4,1.8,4,4v6c0,1.1,0.9,2,2,2s2-0.9,2-2V20l-4-4v-4l-4-4l2-2l9.9,9.9v13.9c0,3.3-2.7,6-6,6s-6-2.7-6-6v-6h-2V20z"/>
</svg>
