<?xml version="1.0" encoding="utf-8"?>
<!-- Generator: Adobe Illustrator 27.0.0, SVG Export Plug-In . SVG Version: 6.00 Build 0)  -->
<svg version="1.1" id="Layer_1" xmlns="http://www.w3.org/2000/svg" xmlns:xlink="http://www.w3.org/1999/xlink" x="0px" y="0px"
	 viewBox="0 0 40 40" style="enable-background:new 0 0 40 40;" xml:space="preserve">
<style type="text/css">
	.st0{fill:none;stroke:#000000;stroke-width:1.2693;stroke-miterlimit:10;}
	.st1{fill:none;stroke:#000000;stroke-width:0.3323;stroke-miterlimit:10;}
	.st2{fill:none;stroke:#000000;stroke-width:1.3905;stroke-miterlimit:10;}
	.st3{fill:none;stroke:#000000;stroke-width:1.7917;stroke-miterlimit:10;}
	.st4{fill:none;stroke:#000000;stroke-width:1.4299;stroke-miterlimit:10;}
	.st5{fill:none;stroke:#000000;stroke-width:0.5972;stroke-miterlimit:10;}
	.st6{fill:none;stroke:#000000;stroke-width:0.1792;stroke-miterlimit:10;}
</style>
<path class="st0" d="M9.9,1.3l0.2,25.3c0,0,2,6.4,10.2,6.4c7.3,0,9.1-6.6,9.1-6.6v-25"/>
<path class="st1" d="M33.2,19.9c0.1,0,0.6,0.5,0.5,1.3"/>
<circle class="st2" cx="19.9" cy="23.6" r="6.3"/>
<path class="st2" d="M10,13.3"/>
<path class="st2" d="M8.1,14.5"/>
<path class="st2" d="M31.5,10.9"/>
<path class="st2" d="M29.5,10"/>
<path class="st3" d="M10.1,12.8c0,0-5.6,2.9-5.6,12.7c0,9.2,11.2,12.9,12.6,13.3c0.1,0,0.2,0,0.3,0h11.5c0.3,0,0.5-0.2,0.5-0.5v-4.8
	c0-0.2,0-0.3,0.1-0.5l2.4-4.2l-0.2-12.6l-1.4-4"/>
<path class="st4" d="M10,11.9l-4,1.2c-1.4-0.2-1.1-1.3-1.1-2.3V3c0,0,1.4-2,14.9-2s15.5,2.4,15.5,2.4v2.1l-3.8,2.4
	c0,0,0.1,3.5,0.1,4c0,0.5-2.1-0.5-2.1-0.5"/>
<path class="st5" d="M29.4,39c0,0,1.6-1.2,1.6-2.8c0-1.6-1.6-2.9-1.6-2.9"/>
<path class="st2" d="M35,27.7"/>
<path class="st5" d="M32.3,28.7c0,0,2.9-2.5,2.9-6.2s-3.1-6-3.1-6"/>
<path class="st6" d="M30.1,35.1c0.1,0.1,0.3,0.3,0.3,0.7"/>
</svg>
