<?xml version="1.0" encoding="utf-8"?>
<!-- Generator: Adobe Illustrator 27.0.0, SVG Export Plug-In . SVG Version: 6.00 Build 0)  -->
<svg version="1.1" id="Layer_1" xmlns="http://www.w3.org/2000/svg" xmlns:xlink="http://www.w3.org/1999/xlink" x="0px" y="0px"
	 viewBox="0 0 40 40" style="enable-background:new 0 0 40 40;" xml:space="preserve">
<style type="text/css">
	.st0{fill:none;stroke:#000000;stroke-width:1.1097;stroke-miterlimit:10;}
	.st1{fill:none;stroke:#000000;stroke-width:0.3323;stroke-miterlimit:10;}
	.st2{fill:none;stroke:#000000;stroke-width:1.1379;stroke-miterlimit:10;}
	.st3{fill:none;stroke:#000000;stroke-width:1.3905;stroke-miterlimit:10;}
	.st4{fill:none;stroke:#000000;stroke-width:2;stroke-miterlimit:10;}
	.st5{fill:none;stroke:#000000;stroke-width:1.6;stroke-miterlimit:10;}
	.st6{fill:none;stroke:#000000;stroke-width:0.631;stroke-miterlimit:10;}
	.st7{fill:none;stroke:#000000;stroke-width:0.5972;stroke-miterlimit:10;}
	.st8{fill:none;stroke:#000000;stroke-width:0.1792;stroke-miterlimit:10;}
</style>
<path class="st0" d="M11.6,1.7l0.2,24.2c0,0,1.6,6.1,8.2,6.1c5.8,0,7.3-6.3,7.3-6.3v-24"/>
<path class="st1" d="M33.2,19.9c0.1,0,0.6,0.5,0.5,1.3"/>
<circle class="st2" cx="19.6" cy="24.2" r="5.2"/>
<path class="st3" d="M10,13.3"/>
<path class="st3" d="M8.1,14.5"/>
<path class="st3" d="M31.5,10.9"/>
<path class="st3" d="M29.5,10"/>
<path class="st4" d="M11.6,12.1c0,0-7.2,3.6-7.2,13.4c0,9.2,11.2,12.9,12.6,13.3c0.1,0,0.2,0,0.3,0h11.5c0.3,0,0.5-0.2,0.5-0.5v-4.8
	c0-0.2,0-0.3,0.1-0.5l2.4-4.2l-0.2-12.6L27.3,12"/>
<path class="st5" d="M11.6,11.6l-5.6,1.4c-1.4-0.2-1.1-1.3-1.1-2.3V3c0,0,1.4-2,14.9-2s15.5,2.4,15.5,2.4v2.1l-3.8,2.4
	c0,0,0.1,3.5,0.1,4c0,0.5-4.3-0.6-4.3-0.6"/>
<path class="st6" d="M29.9,39c0,0,1.8-1.2,1.8-2.8c0-1.6-1.8-2.9-1.8-2.9"/>
<path class="st3" d="M35,27.7"/>
<path class="st7" d="M32.3,28.7c0,0,2.9-2.5,2.9-6.2s-3.1-6-3.1-6"/>
<path class="st8" d="M30.5,35.4c0.1,0.1,0.3,0.3,0.3,0.7"/>
</svg>
