<?xml version="1.0" encoding="utf-8"?>
<!-- Generator: Adobe Illustrator 27.9.0, SVG Export Plug-In . SVG Version: 6.00 Build 0)  -->
<svg version="1.1" id="Layer_1" xmlns="http://www.w3.org/2000/svg" xmlns:xlink="http://www.w3.org/1999/xlink" x="0px" y="0px"
	 viewBox="0 0 72 72" style="enable-background:new 0 0 72 72;" xml:space="preserve">
<style type="text/css">
	.st0{fill:none;stroke:#FFFFFF;stroke-width:2;stroke-miterlimit:10;}
	.st1{fill:none;stroke:#FFFFFF;stroke-width:0.3323;stroke-miterlimit:10;}
	.st2{fill:none;stroke:#FFFFFF;stroke-width:1.3905;stroke-miterlimit:10;}
	.st3{fill:none;stroke:#FFFFFF;stroke-width:1.7917;stroke-miterlimit:10;}
	.st4{fill:none;stroke:#FFFFFF;stroke-width:0.5972;stroke-miterlimit:10;}
	.st5{fill:none;stroke:#FFFFFF;stroke-width:0.1792;stroke-miterlimit:10;}
</style>
<path class="st0" d="M18,6.3l0.4,42.3c0,0,3.6,10.7,18.4,10.7c13.1,0,16.4-11,16.4-11V6.5"/>
<path class="st1" d="M59.9,35.8c0.2,0,1.1,0.9,0.9,2.3"/>
<circle class="st2" cx="36" cy="42.5" r="11.3"/>
<path class="st2" d="M18.2,23.9"/>
<path class="st2" d="M14.8,26.1"/>
<path class="st2" d="M56.9,19.6"/>
<path class="st2" d="M53.3,18"/>
<path class="st3" d="M18.4,23c0,0-10.1,3-10.1,22.9c0,15.8,20.2,23.2,22.7,23.9c0.2,0,0.4,0,0.5,0h20.7c0.5,0,0.9-0.4,0.9-0.9v-8.6
	c0-0.4,0-0.5,0.2-0.9l4.3-7.6l-0.3-21.8c0-0.6-0.1-1.2-0.3-1.7l-3.6-9.2"/>
<path class="st4" d="M53.1,70.2c0,0,2.9-2.2,2.9-5c0-2.9-2.9-5.2-2.9-5.2"/>
<path class="st2" d="M63.2,49.9"/>
<path class="st4" d="M58.3,51.7c0,0,5.2-4.5,5.2-11.2S58,29.7,58,29.7"/>
<path class="st5" d="M54.4,63.2c0.2,0.2,0.5,0.5,0.5,1.3"/>
<path class="st2" d="M6.8,2.7v1.9c0,1,0.8,1.8,1.8,1.8h52.6c1.1,0,2-0.9,2-2V2.7"/>
</svg>
