<?xml version="1.0" encoding="utf-8"?>
<!-- Generator: Adobe Illustrator 27.9.0, SVG Export Plug-In . SVG Version: 6.00 Build 0)  -->
<svg version="1.1" id="road-icon" xmlns="http://www.w3.org/2000/svg" xmlns:xlink="http://www.w3.org/1999/xlink" x="0px" y="0px"
	 viewBox="0 0 72 72" style="enable-background:new 0 0 72 72;" xml:space="preserve">
<style type="text/css">
	.st0{fill:none;stroke:#231F20;stroke-width:1.9059;stroke-miterlimit:10;}
	.st1{fill:#231F20;}
	.st2{fill:none;stroke:#231F20;stroke-width:1.9;stroke-miterlimit:10;}
</style>
<path class="st0" d="M57.3,27.4c-6.3,0-11.5,5.2-11.5,11.5c0.1,7.8,10.5,21.2,10.9,21.7c0.2,0.2,0.5,0.3,0.7,0.3l0,0
	c0.3,0,0.6-0.2,0.7-0.3c0.6-0.6,10.9-13.9,10.9-21.7C68.8,32.6,63.7,27.4,57.3,27.4z"/>
<path class="st1" d="M56.6,63.9L27,47.9l6.8-3.6c0.7-0.4,1.1-1.1,1-1.9c-0.1-0.7-0.5-1.4-1.2-1.8c0,0-12.2-5.4-13.1-5.8
	c-0.6-0.2-1.4-0.2-1.7-0.1c-0.9,0.2-1.5,0.7-1.5,1.3c0,0.9,1.6,1.4,1.8,1.6l11.2,4.8c0.1,0.1,0.1,0.3,0,0.3l-8.2,3.3
	c-0.7,0.4-1.1,1.1-1,1.9c0,0.7,0.5,1.4,1.1,1.8l29.9,17.7c1,0.4,2.1,1.3,3.9,1.3c0.2,0,0.3,0,0.5,0c0,0,0,0,0.1,0
	c0.2,0,0.4,0,0.6-0.1c1.4-0.3,2.5-1.1,2.5-2.1C59.7,65.5,58.4,64.8,56.6,63.9z"/>
<g>
	<polygon id="polygon15" class="st2" points="20.7,28.8 20.7,7.1 35.6,36.3 	"/>
</g>
<g>
	<polygon id="polygon15_00000127026260844333480810000016222459429296732835_" class="st2" points="3.1,36.3 18,7.1 18,28.8 	"/>
</g>
</svg>
