<?xml version="1.0" encoding="utf-8"?>
<!-- Generator: Adobe Illustrator 26.5.0, SVG Export Plug-In . SVG Version: 6.00 Build 0)  -->
<svg version="1.1" id="Layer_1" xmlns="http://www.w3.org/2000/svg" xmlns:xlink="http://www.w3.org/1999/xlink" x="0px" y="0px"
	 viewBox="0 0 40 40" style="enable-background:new 0 0 40 40;" xml:space="preserve">
<style type="text/css">
	.st0{fill:#F5F5F5;}
</style>
<path class="st0" d="M1.7,11.4c-0.1,0-0.2,0-0.4-0.1c-0.4-0.2-0.6-0.6-0.7-0.9L0.4,9.9C0.3,9.7,0.2,9.5,0.2,9.3
	c-0.5-1.4,0.1-2.8,1.4-3.4c0.2-0.1,0.3-0.1,0.5-0.2l10.7-4.3c0.7-0.3,1.4-0.6,2.1-0.8c0.3-0.1,0.7-0.2,1.1-0.2c0.8,0,1.5,0.4,2,1
	c0.4,0.5,0.6,1,0.8,1.6c0.1,0.2,0.1,0.4,0.2,0.5c0.2,0.5,0,1-0.6,1.3c-0.5,0.2-1.1,0.5-1.6,0.7c-0.3,0.1-0.5,0.2-0.8,0.3L2.4,11.2
	C2.1,11.3,1.9,11.4,1.7,11.4L1.7,11.4z M15.9,2.3c-0.4,0-0.9,0.2-1.3,0.4c-0.1,0.1-0.3,0.1-0.4,0.2L2.7,7.6c-0.1,0-0.2,0.1-0.3,0.1
	C1.8,8,2,8.4,2.2,9.1l13.8-5.6c0,0,0.1,0,0.2-0.1c0.1,0,0.4-0.1,0.4-0.2c0-0.1-0.3-0.7-0.5-0.8C16.2,2.4,16.1,2.3,15.9,2.3z"/>
<path class="st0" d="M18.7,3.5c-0.3-0.7-0.5-1.5-0.9-2.1c-0.7-0.9-1.9-1.1-2.9-0.7c-1,0.4-2.1,0.8-3.1,1.3C8.6,3.3,5.5,4.5,2.3,5.8
	C2.1,5.9,1.8,6,1.6,6.1C0.4,6.6-0.2,8,0.3,9.2c0.1,0.3,0.3,0.6,0.4,0.9c0.1,0.4,0.3,0.8,0.7,1c0.4,0.2,0.7,0,1-0.2
	c2.9-1.2,5.8-2.3,8.7-3.5c1.6-0.6,3.2-1.3,4.8-1.9c0.8-0.3,1.6-0.6,2.4-0.9C18.7,4.4,18.9,3.9,18.7,3.5L18.7,3.5z M2.1,9.4
	C1.8,8.7,1.4,8,2.2,7.6c0.2-0.1,0.4-0.1,0.5-0.2C3.8,6.9,4.9,6.5,6,6.1c2.7-1.1,5.5-2.2,8.2-3.3c0.5-0.2,1.6-0.9,2.2-0.5
	c0.2,0.1,0.6,0.9,0.5,1.1c-0.1,0.1-0.6,0.2-0.7,0.3c-2.5,1-5.1,2-7.6,3.1C6.4,7.6,4.3,8.5,2.2,9.3C2.1,9.3,2.1,9.3,2.1,9.4L2.1,9.4z
	"/>
<path class="st0" d="M38.3,11.4c-0.1,0-0.3,0-0.4-0.1c-0.6-0.2-1.2-0.5-1.8-0.7l-0.9-0.4L21.9,4.8c-0.9-0.4-0.9-1-0.8-1.4
	c0.3-0.8,0.6-1.7,1.1-2.3c0.5-0.5,1.1-0.8,1.9-0.8c0.4,0,0.7,0.1,1.1,0.2l13.2,5.3c0.7,0.3,1.2,0.8,1.4,1.5c0.4,1,0,1.9-0.3,2.7
	l-0.1,0.2C39.2,10.7,39,11.4,38.3,11.4L38.3,11.4z M37,8.8c0.1,0,0.2,0.1,0.3,0.1c0.2,0.1,0.4,0.2,0.5,0.2c0,0,0,0,0,0
	c0-0.1,0.1-0.3,0.1-0.4c0-0.1,0-0.2,0.1-0.2C38,8.4,38,8.2,38,8.1c-0.2-0.4-0.9-0.7-1.4-0.8c-0.1,0-0.3-0.1-0.4-0.1L24.9,2.6
	l-0.2-0.1c-0.1-0.1-0.3-0.1-0.4-0.2c-0.1,0-0.2,0-0.3,0c-0.4,0-0.6,0.4-0.8,0.9L37,8.8z"/>
<path class="st0" d="M38.3,6.1c-2.5-1-5-2-7.5-3c-1.5-0.6-3.1-1.2-4.6-1.9c-0.4-0.2-0.7-0.3-1.1-0.5c-1-0.4-2-0.2-2.8,0.5
	c-0.5,0.5-0.8,1.5-1.1,2.2c-0.2,0.6,0.2,1,0.7,1.2c1.1,0.4,2.1,0.9,3.2,1.3c3.4,1.4,6.7,2.7,10.1,4.1c0.9,0.4,1.8,0.8,2.7,1.1
	c0.8,0.3,1.1-0.3,1.3-0.9c0.4-0.9,0.8-1.8,0.4-2.8C39.4,6.8,38.9,6.3,38.3,6.1L38.3,6.1z M38.2,8.6c-0.1,0.1-0.2,0.7-0.3,0.7
	c0,0-0.1,0-0.1,0c-0.3,0-0.6-0.2-0.8-0.3c-1.1-0.5-2.3-0.9-3.4-1.4c-2.8-1.1-5.6-2.3-8.5-3.4c-0.7-0.3-1.3-0.5-2-0.8
	c0.3-0.6,0.5-1.5,1.3-1.2c0.2,0.1,0.4,0.2,0.6,0.2c1.1,0.4,2.1,0.9,3.2,1.3c2.7,1.1,5.4,2.2,8.1,3.3C36.9,7.2,38.6,7.6,38.2,8.6
	L38.2,8.6z"/>
<path class="st0" d="M24,32.1c-0.1-1.6-1.1-3-2.5-3.5c-1.6-0.6-3.5-0.1-4.6,1.2c-1,1.3-1.2,3.1-0.4,4.5c0.9,1.6,2.8,2.3,4.5,1.9
	C22.8,35.6,24.1,33.9,24,32.1L24,32.1z M22.4,32.5c-0.2,2.1-2.9,2.9-4.2,1.3c-1.3-1.6,0-4.1,2.1-3.9C21.5,30,22.5,31.2,22.4,32.5z"
	/>
<path class="st0" d="M20,39.7c-1.8,0-3.5-0.6-4.8-1.8c-1.4-1.2-2.3-3-2.5-4.8c-0.1-0.7,0-1.4,0.1-2.1l0-0.4c0.1-1,0.1-1.9,0.1-2.8
	c0-2.7-0.5-5.3-1.6-8c-0.2,0.2-0.4,0.5-0.5,0.8c-0.1,0.2-0.2,0.3-0.3,0.5c-0.6,0.9-1.4,1.3-2.2,1.6l-1.2,0.5
	c-0.2,0.1-0.4,0.2-0.7,0.2c-0.7-0.1-0.9-0.6-1-0.9l-2.3-5.8c-0.1-0.3-0.3-0.6-0.4-0.9C2.4,15,2.2,14.4,2,13.7
	c-0.3-1,0.5-1.3,1.1-1.6l15-6.1c0.3-0.1,0.7-0.3,1-0.3c0.3,0,0.6,0.1,0.8,0.4c0.2-0.3,0.5-0.5,0.8-0.5c0.1,0,0.2,0,0.4,0.1
	c0.1,0,0.1,0,0.2,0.1l16.1,6.5c0.2,0.1,0.4,0.3,0.5,0.5c0.2,0.6-0.2,1.5-0.5,2.1c-0.1,0.1-0.1,0.3-0.2,0.4l-2.7,6.8l-0.1,0.1
	c-0.1,0.2-0.1,0.4-0.3,0.6c-0.2,0.2-0.4,0.3-0.7,0.3c-0.4,0-0.7-0.2-1-0.3l-0.2-0.1l-0.4-0.1c-0.4-0.2-0.9-0.3-1.3-0.6
	c-0.5-0.3-0.9-0.8-1.2-1.3l-0.2-0.3c-0.2-0.3-0.3-0.5-0.5-0.8c-1.2,3-1.7,6.2-1.5,9.7c0,0.4,0.1,0.8,0.1,1.2c0,0.5,0.1,1,0.1,1.5
	c0,0.9-0.1,1.8-0.5,2.7c-0.5,1.3-1.4,2.6-2.6,3.4C23.1,39.2,21.6,39.7,20,39.7z M24.3,17.8c0,0.1-0.1,0.3-0.1,0.4
	c0,0.1,0,0.1-0.1,0.2L24,18.5c-0.1,0.2-0.2,0.4-0.3,0.7c-0.8,1.8-2,3.6-3.5,5.4c-0.7,0.8-1.4,1.5-2.2,2.3c-0.3,0.2-0.5,0.5-0.8,0.7
	c-0.5,0.4-1,0.8-1.4,1.3c-1.2,1.4-1.5,3.4-1,5.1c0.6,1.9,2.3,3.3,4.3,3.6c0.3,0,0.5,0.1,0.8,0.1c1.4,0,2.9-0.6,3.9-1.7
	c1-1.1,1.6-2.7,1.5-4.3c-0.5-4.8,0-9,1.5-12.8l0,0c-0.1,0-0.2-0.1-0.3-0.1c-0.1,0-0.1,0-0.2-0.1l-1.6-0.6c0,0-0.1,0-0.2-0.1
	C24.6,18,24.4,17.9,24.3,17.8z M13.1,18.9c1.1,2.7,1.7,5.3,1.8,8c0.3-0.3,0.6-0.5,0.9-0.8c0.2-0.2,0.5-0.4,0.7-0.6
	c0.6-0.6,1.2-1.1,1.7-1.6c0,0,0.1-0.1,0.2-0.2c0.1-0.1,0.4-0.4,0.4-0.5c0-0.1-0.2-0.4-0.3-0.5c-0.1-0.1-0.1-0.2-0.2-0.2
	c-0.4-0.6-0.8-1.2-1.2-1.8c-0.4-0.6-0.7-1.3-1-1.9c-0.1-0.2-0.2-0.5-0.3-0.7c0,0-0.1-0.2-0.1-0.2c-0.1,0-0.3,0.1-0.3,0.1L13.1,18.9z
	 M17.6,17.2c0.7,1.6,1.5,3.1,2.5,4.4c1.1-1.5,1.8-3.1,2.4-4.4c0,0-0.1,0-0.1,0c-0.2,0-0.4,0-0.6,0.1c-0.5,0.2-1,0.3-1.6,0.3
	c-0.2,0-0.4,0-0.6,0c-0.3,0-0.6-0.1-0.8-0.2C18.2,17.3,18,17.2,17.6,17.2C17.6,17.2,17.6,17.2,17.6,17.2z M7,20.9l0.2-0.1
	c0.7-0.3,1.4-0.6,1.7-1.3c0.6-1.5,2-2,3.3-2.5l1.5-0.6c0.7-0.3,1.4-0.6,2.1-0.9c0,0,0.1,0,0.2-0.1c0.1,0,0.2-0.1,0.3-0.1
	c0,0,0-0.1,0-0.1c0-0.1,0-0.2,0.1-0.2c0.1-0.3,0.5-1.3,0.5-1.3l1.6-4c0-0.1,0.1-0.2,0.2-0.4c0.1-0.2,0.2-0.5,0.3-0.7
	c0-0.2-0.1-0.5-0.2-0.7c0,0,0-0.1-0.1-0.1L4.2,13.9L7,20.9z M22.3,15.2c0.1,0,0.3,0,0.4,0c0.7,0.1,1.3,0.4,1.9,0.6
	c0.2,0.1,0.3,0.1,0.5,0.2l3,1.2c1,0.4,1.9,0.8,2.5,1.6c0.1,0.2,0.3,0.4,0.4,0.6c0.3,0.5,0.5,0.8,1,1.1c0.3,0.1,0.5,0.2,0.8,0.3
	l0.2,0.1l2.8-6.9l0.1-0.1c0-0.1-0.2-0.1-0.3-0.2c-0.1,0-0.2,0-0.2-0.1L21.5,8.1c-0.1,0-0.1,0-0.1-0.1c-0.1,0.2-0.2,0.5-0.3,0.8
	C21,9,21,9.1,20.9,9.2c-0.5,1.4-2.4,5.9-2.4,5.9c0.1,0,0.2,0.1,0.2,0.1c0.3,0.1,0.6,0.2,0.9,0.3c0.2,0,0.3,0.1,0.5,0.1
	c0.3,0,0.5-0.1,0.9-0.2C21.4,15.3,21.9,15.2,22.3,15.2z"/>
<path class="st0" d="M37.4,12.6c-2-0.8-4-1.6-5.9-2.4c-3-1.2-5.9-2.4-8.9-3.6c-0.4-0.2-0.8-0.3-1.2-0.5c-0.1,0-0.1-0.1-0.2-0.1
	c-0.6-0.2-0.9,0.2-1.1,0.7c-0.4-1.1-1.2-0.6-2-0.3c-1,0.4-2,0.8-3.1,1.2c-2.9,1.2-5.7,2.3-8.6,3.5c-1,0.4-2,0.8-3,1.2
	c-0.6,0.3-1.5,0.5-1.2,1.4c0.3,0.9,0.7,1.8,1.1,2.7c0.6,1.4,1.1,2.8,1.7,4.2c0.2,0.5,0.4,1,0.6,1.5C5.7,22.6,5.9,23,6.4,23
	c0.3,0,0.6-0.1,0.8-0.2c0.4-0.1,0.7-0.3,1.1-0.4c0.8-0.3,1.6-0.8,2.1-1.5c0.3-0.5,0.5-1.1,1-1.4c1.1,2.7,1.7,5.4,1.7,8.3
	c0,0.9,0,1.9-0.1,2.8c-0.1,0.8-0.2,1.6-0.1,2.5c0.2,1.8,1.1,3.5,2.4,4.7c2.5,2.2,6.3,2.3,8.9,0.4c1.1-0.8,2-2,2.5-3.3
	c0.3-0.8,0.5-1.7,0.4-2.6c0-0.9-0.2-1.8-0.2-2.7c-0.1-3.5,0.4-6.8,1.6-10c0.5,0.3,0.7,0.8,0.9,1.2c0.3,0.5,0.7,0.9,1.2,1.2
	c0.5,0.3,1.1,0.5,1.6,0.7c0.5,0.2,1.3,0.7,1.8,0.1c0.1-0.2,0.2-0.4,0.3-0.7c0.9-2.3,1.8-4.5,2.7-6.8C37.4,14.7,38.5,13,37.4,12.6
	L37.4,12.6z M21.6,17.2c0.4-0.2,0.8-0.2,1.1-0.1C22,18.8,21.2,20.5,20,22c-1.1-1.5-2-3.2-2.8-4.9c0.8-0.2,1.4,0.3,2.1,0.4
	C20.1,17.5,20.9,17.4,21.6,17.2L21.6,17.2z M9.1,19.7c-0.4,0.9-1.4,1.2-2.2,1.5C6,19,5.2,16.9,4.3,14.7c-0.1-0.3-0.3-0.6-0.4-0.9
	c1.7-0.7,3.3-1.3,5-2l8-3.2c0.6-0.2,1.2-0.5,1.8-0.7c0.1,0.3,0.4,0.8,0.4,1.1c0,0.4-0.3,0.8-0.4,1.1c-0.5,1.3-1.1,2.6-1.6,4
	c-0.2,0.4-0.3,0.8-0.5,1.3c0,0.1-0.1,0.4-0.1,0.4c-0.1,0.1-0.4,0.2-0.5,0.2c-1.1,0.4-2.1,0.9-3.2,1.3C11.3,17.7,9.8,18.2,9.1,19.7
	L9.1,19.7z M12.8,18.8c0.5-0.2,1-0.4,1.5-0.6c0.3-0.1,0.7-0.3,1-0.4c0.1,0,0.4-0.2,0.5-0.2c0.1,0,0.1,0.3,0.2,0.4
	c0.1,0.2,0.2,0.5,0.3,0.7c0.3,0.7,0.6,1.3,1,1.9c0.4,0.6,0.8,1.2,1.2,1.8c0.1,0.2,0.6,0.6,0.6,0.8c0,0.2-0.5,0.6-0.7,0.8
	c-0.5,0.6-1.1,1.1-1.7,1.6c-0.6,0.6-1.4,1.1-1.9,1.7C14.6,24.4,14,21.6,12.8,18.8L12.8,18.8z M25.6,31.7c0.1,1.6-0.4,3.3-1.5,4.4
	c-1.2,1.3-3.1,2-4.9,1.7c-2.1-0.4-3.8-1.7-4.5-3.8c-0.6-1.8-0.2-3.8,1-5.3c0.6-0.8,1.5-1.4,2.2-2c0.8-0.7,1.5-1.5,2.2-2.3
	c1.4-1.6,2.6-3.4,3.4-5.3c0.1-0.3,0.2-0.5,0.3-0.8c0-0.1,0.2-0.6,0.3-0.7c0.1-0.1,0.6,0.2,0.8,0.3c0.5,0.2,1.1,0.4,1.6,0.6
	c0.1,0.1,0.3,0.1,0.5,0.2c0.2,0.1,0.1,0,0.1,0.3C25.5,23.1,25.1,27.4,25.6,31.7L25.6,31.7z M33.1,21.2c-0.4-0.2-0.8-0.3-1.2-0.5
	c-0.8-0.4-1-1.1-1.5-1.7c-0.6-0.8-1.5-1.2-2.4-1.6c-1-0.4-2-0.8-3-1.2c-0.8-0.3-1.6-0.7-2.4-0.8c-0.6-0.1-1.1,0-1.6,0.2
	c-0.5,0.2-1,0.3-1.5,0.1c-0.4-0.1-0.9-0.3-1.3-0.5c0.8-2,1.6-4,2.4-6.1c0.2-0.4,0.3-0.9,0.5-1.2c0.1-0.1,0.1-0.1,0.3,0
	c0.8,0.3,1.7,0.7,2.5,1c2.7,1.1,5.5,2.2,8.2,3.3c1,0.4,2,0.8,3.1,1.2c0.1,0.1,0.6,0.1,0.7,0.3c0.1,0.1,0,0.2-0.1,0.3
	c-0.9,2.3-1.9,4.6-2.8,6.9C33.1,21.1,33.1,21.1,33.1,21.2L33.1,21.2z"/>
</svg>
