<?xml version="1.0" encoding="utf-8"?>
<!-- Generator: Adobe Illustrator 27.0.0, SVG Export Plug-In . SVG Version: 6.00 Build 0)  -->
<svg version="1.1" id="Layer_1" xmlns="http://www.w3.org/2000/svg" xmlns:xlink="http://www.w3.org/1999/xlink" x="0px" y="0px"
	 viewBox="0 0 40 40" style="enable-background:new 0 0 40 40;" xml:space="preserve">
<style type="text/css">
	.st0{fill:#F5F5F5;}
	.st1{fill:none;stroke:#F5F5F5;stroke-width:1.89;stroke-miterlimit:10;}
	.st2{fill:none;stroke:#F5F5F5;stroke-width:1.777;stroke-miterlimit:10;}
</style>
<path class="st0" d="M20.2,39.8c-2,0-3.9-0.7-5.4-2c-1.5-1.4-2.5-3.4-2.7-5.5c-0.1-1,0-1.9,0.1-2.8c0.1-0.9,0.1-1.9,0.1-2.8
	c0-2.3-0.4-4.6-1.2-6.9c0,0.1-0.1,0.1-0.1,0.2c-0.6,0.8-1.5,1.5-2.6,1.9C8.2,21.9,8.1,22,8,22c-0.2,0.1-0.4,0.2-0.6,0.2
	c-0.2,0.1-0.6,0.3-1.1,0.3c-0.5,0-1.3-0.2-1.6-1.5l-0.6-1.5c-0.3-0.7-0.6-1.5-0.9-2.2c-0.3-0.7-0.6-1.4-0.9-2.2
	c-0.4-0.9-0.8-1.9-1.2-2.9C0.7,10.7,2,10.1,2.5,9.9c0.1,0,0.2-0.1,0.3-0.1c0,0,3.1-1.3,3.1-1.3c1.5-0.6,2.9-1.2,4.4-1.8
	c1.5-0.6,2.9-1.2,4.4-1.8c1.2-0.4,2.2-0.8,3.2-1.3l0.3-0.1c0.4-0.2,0.8-0.3,1.3-0.3c0.2,0,0.5,0,0.8,0.2C20.5,3.1,20.9,3,21.1,3
	c0.2,0,0.3,0,0.5,0.1c0.1,0,0.3,0.1,0.4,0.2c0,0,0,0,0,0c0.2,0.1,0.4,0.2,0.5,0.2c0.2,0.1,0.5,0.2,0.7,0.3c1.5,0.6,3,1.2,4.5,1.8
	c1.5,0.6,3,1.3,4.6,1.9c2,0.8,4,1.7,6,2.5c0.4,0.2,0.8,0.5,0.9,1c0.3,1-0.3,2.1-0.9,3c-0.5,1.2-0.9,2.3-1.4,3.5
	c-0.5,1.2-0.9,2.3-1.4,3.6c-0.1,0.3-0.2,0.6-0.3,0.8c0,0.1-0.1,0.1-0.1,0.2c-0.3,0.4-0.8,0.6-1.3,0.6c-0.5,0-1-0.2-1.3-0.4l-0.2-0.1
	L32,22c-0.5-0.2-1-0.4-1.4-0.7c-0.6-0.4-1.1-0.9-1.5-1.5c-0.8,2.7-1.2,5.6-1.1,8.7c0,0.4,0,0.9,0.1,1.3c0.1,0.5,0.1,1,0.1,1.5
	c0.1,0.9-0.1,1.9-0.5,3c-0.6,1.5-1.6,2.9-2.8,3.8C23.6,39.3,21.9,39.8,20.2,39.8z M24.8,17.1c-0.1,0.1-0.1,0.3-0.2,0.4
	c0,0.1-0.1,0.2-0.1,0.4c-0.8,2-2.1,4-3.6,5.8c-0.7,0.8-1.5,1.7-2.3,2.5c-0.2,0.2-0.4,0.4-0.6,0.5c-0.5,0.4-1.1,0.9-1.5,1.4
	c-1.1,1.4-1.4,3.2-0.9,4.8c0.6,1.8,2,3,4,3.4c0.2,0,0.5,0.1,0.7,0.1c1.3,0,2.7-0.6,3.6-1.6c0.9-0.9,1.4-2.5,1.3-4
	c-0.5-4.6-0.1-9,1.4-13.1c0,0,0,0-0.1,0c-0.2-0.1-0.5-0.2-0.7-0.3C25.4,17.4,25.2,17.2,24.8,17.1L24.8,17.1z M13.9,17.8
	c0.8,2.1,1.4,4.3,1.6,6.7c0.2-0.2,0.5-0.4,0.7-0.6c0.7-0.6,1.2-1,1.7-1.6c0.1-0.1,0.2-0.2,0.3-0.2c0,0,0,0,0.1-0.1
	c-0.1-0.1-0.2-0.3-0.3-0.4l-1.2-1.8c-0.4-0.6-0.7-1.3-1.1-2.1c0-0.1-0.1-0.2-0.2-0.4c0,0,0,0,0,0c-0.1,0-0.2,0.1-0.3,0.1
	c-0.2,0.1-0.4,0.2-0.6,0.2L13.9,17.8z M18.8,16.6c0.5,1,1,1.8,1.4,2.6c0.6-0.9,1-1.8,1.4-2.7c-0.7,0.2-1.4,0.2-2.2,0.2
	c0,0-0.1,0-0.1,0C19.1,16.7,18.9,16.7,18.8,16.6z M4.8,12.5c0,0.1,0.1,0.2,0.1,0.2c0.4,1.1,0.9,2.2,1.3,3.4c0.3,0.9,0.7,1.8,1,2.6
	c0.5-0.2,0.9-0.4,1-0.8c0.9-1.9,2.6-2.5,4.3-3c0.5-0.2,1-0.4,1.5-0.6c0.6-0.2,1.1-0.5,1.7-0.7c0,0,0.1,0,0.1,0c0,0,0-0.1,0-0.1
	c0.1-0.2,0.1-0.4,0.2-0.5c0.1-0.3,0.2-0.6,0.3-0.9c0.3-0.8,0.6-1.6,0.9-2.4c0.2-0.6,0.5-1.1,0.7-1.7c0-0.1,0.1-0.3,0.2-0.4
	c0.1-0.1,0.2-0.4,0.2-0.4c0,0,0,0,0-0.1c-0.1,0-0.1,0-0.2,0.1c-0.3,0.1-0.7,0.3-1,0.4l-8.1,3.3c-0.9,0.4-1.7,0.7-2.6,1
	C6,12,5.4,12.3,4.8,12.5z M22.4,12.9c0.2,0,0.4,0,0.6,0.1c0.7,0.1,1.4,0.4,2,0.6c0.2,0.1,0.4,0.2,0.6,0.2l3.1,1.3
	c1,0.4,2.1,0.9,2.8,1.9c0.2,0.2,0.3,0.4,0.5,0.7c0.3,0.4,0.4,0.7,0.8,0.9c0.1,0,0.1,0.1,0.2,0.1c0.4-1,0.8-2,1.2-3.1
	c0.4-1.1,0.9-2.1,1.3-3.2c0,0,0,0,0,0c-1.1-0.4-2.1-0.8-3.1-1.2c-1.4-0.6-2.8-1.2-4.2-1.7c-1.4-0.6-2.8-1.2-4.2-1.7
	c-0.4-0.2-0.8-0.3-1.3-0.5c-0.3-0.1-0.5-0.2-0.8-0.3c-0.1,0.2-0.2,0.5-0.3,0.7c-0.7,1.9-1.4,3.7-2.1,5.6c0.2,0.1,0.3,0.1,0.5,0.2
	c0,0,0.1,0,0.1,0c0.1,0,0.2,0.1,0.3,0.1c0.2,0,0.4-0.1,0.6-0.2C21.4,13,21.9,12.9,22.4,12.9z M16.1,13.5
	C16.1,13.5,16.1,13.5,16.1,13.5C16.1,13.5,16.1,13.5,16.1,13.5C16.1,13.5,16.1,13.5,16.1,13.5z"/>
<path class="st0" d="M38,10.8c-2-0.8-4.1-1.7-6-2.5c-3.1-1.3-6-2.5-9.1-3.8C22.4,4.3,22,4.2,21.6,4c-0.1,0-0.1-0.1-0.2-0.1
	c-0.6-0.2-0.9,0.2-1.1,0.7c-0.4-1.2-1.2-0.6-2-0.3c-1,0.4-2,0.8-3.2,1.3c-3,1.3-5.8,2.4-8.8,3.7c-1,0.4-2,0.8-3.1,1.3
	C2.6,10.8,1.6,11,1.9,12c0.3,0.9,0.7,1.9,1.1,2.8c0.6,1.5,1.1,2.9,1.7,4.4c0.2,0.5,0.4,1,0.6,1.6c0.1,0.5,0.3,0.9,0.8,0.9
	c0.3,0,0.6-0.1,0.8-0.2c0.4-0.1,0.7-0.3,1.1-0.4c0.8-0.3,1.6-0.8,2.2-1.6c0.3-0.5,0.5-1.2,1-1.5c1.1,2.8,1.7,5.6,1.7,8.7
	c0,0.9,0,2-0.1,2.9c-0.1,0.8-0.2,1.7-0.1,2.6c0.2,1.9,1.1,3.7,2.5,4.9c2.6,2.3,6.5,2.4,9.1,0.4c1.1-0.8,2-2.1,2.6-3.5
	c0.3-0.8,0.5-1.8,0.4-2.7c0-0.9-0.2-1.9-0.2-2.8c-0.1-3.7,0.4-7.1,1.6-10.5c0.5,0.3,0.7,0.8,0.9,1.3c0.3,0.5,0.7,0.9,1.2,1.3
	c0.5,0.3,1.1,0.5,1.6,0.7c0.5,0.2,1.3,0.7,1.8,0.1c0.1-0.2,0.2-0.4,0.3-0.7c0.9-2.4,1.8-4.7,2.8-7.1C38,13,39.1,11.2,38,10.8
	L38,10.8z M21.8,15.6c0.4-0.2,0.8-0.2,1.1-0.1c-0.7,1.8-1.5,3.6-2.8,5.1c-1.1-1.6-2-3.3-2.9-5.1c0.8-0.2,1.4,0.3,2.2,0.4
	C20.3,15.9,21.1,15.8,21.8,15.6L21.8,15.6z M9,18.2c-0.4,0.9-1.4,1.3-2.3,1.6C5.8,17.5,5,15.3,4.1,13c-0.1-0.3-0.3-0.6-0.4-0.9
	c1.7-0.7,3.4-1.4,5.1-2.1L17,6.6c0.6-0.2,1.2-0.5,1.8-0.7c0.1,0.3,0.4,0.8,0.4,1.2c0,0.4-0.3,0.8-0.4,1.2c-0.5,1.4-1.1,2.7-1.6,4.2
	c-0.2,0.4-0.3,0.8-0.5,1.4c0,0.1-0.1,0.4-0.1,0.4c-0.1,0.1-0.4,0.2-0.5,0.2c-1.1,0.4-2.2,0.9-3.3,1.4C11.3,16.2,9.7,16.7,9,18.2
	L9,18.2z M12.8,17.3c0.5-0.2,1-0.4,1.5-0.6c0.3-0.1,0.7-0.3,1-0.4c0.1,0,0.4-0.2,0.5-0.2s0.1,0.3,0.2,0.4c0.1,0.2,0.2,0.5,0.3,0.7
	c0.3,0.7,0.6,1.4,1,2c0.4,0.6,0.8,1.3,1.2,1.9c0.1,0.2,0.6,0.6,0.6,0.8s-0.5,0.6-0.7,0.8c-0.5,0.6-1.1,1.2-1.7,1.7
	c-0.6,0.6-1.4,1.2-1.9,1.8C14.6,23.2,14,20.2,12.8,17.3L12.8,17.3z M25.9,30.8c0.1,1.7-0.4,3.5-1.5,4.6c-1.2,1.4-3.2,2.1-5,1.8
	c-2.2-0.4-3.9-1.8-4.6-4c-0.6-1.9-0.2-4,1-5.5c0.6-0.8,1.5-1.5,2.3-2.1c0.8-0.7,1.5-1.6,2.3-2.4c1.4-1.7,2.7-3.6,3.5-5.5
	c0.1-0.3,0.2-0.5,0.3-0.8c0-0.1,0.2-0.6,0.3-0.7c0.1-0.1,0.6,0.2,0.8,0.3c0.5,0.2,1.1,0.4,1.6,0.6c0.1,0.1,0.3,0.1,0.5,0.2
	c0.2,0.1,0.1,0,0.1,0.3C25.8,21.8,25.4,26.3,25.9,30.8L25.9,30.8z M33.6,19.8c-0.4-0.2-0.8-0.3-1.2-0.5c-0.8-0.4-1-1.2-1.5-1.8
	c-0.6-0.8-1.5-1.3-2.5-1.7c-1-0.4-2-0.8-3.1-1.3c-0.8-0.3-1.6-0.7-2.5-0.8c-0.6-0.1-1.1,0-1.6,0.2c-0.5,0.2-1,0.3-1.5,0.1
	c-0.4-0.1-0.9-0.3-1.3-0.5c0.8-2.1,1.6-4.2,2.5-6.4c0.2-0.4,0.3-0.9,0.5-1.3c0.1-0.1,0.1-0.1,0.3,0c0.8,0.3,1.7,0.7,2.6,1
	c2.8,1.2,5.6,2.3,8.4,3.5c1,0.4,2,0.8,3.2,1.3c0.1,0.1,0.6,0.1,0.7,0.3c0.1,0.1,0,0.2-0.1,0.3c-0.9,2.4-1.9,4.8-2.9,7.2
	C33.6,19.7,33.6,19.7,33.6,19.8L33.6,19.8z"/>
<path class="st1" d="M2.5,12L1.2,9.3C1,9,1.1,8.7,1.4,8.6l17-6.8c0.2-0.1,0.5,0,0.6,0.2l1.5,3"/>
<path class="st2" d="M20.4,4.5l0.5-2.7c0.1-0.3,0.3-0.4,0.6-0.3l17.1,7C38.9,8.7,39,8.9,39,9.2l-0.6,3"/>
</svg>
