<?xml version="1.0" encoding="utf-8"?>
<!-- Generator: Adobe Illustrator 26.5.0, SVG Export Plug-In . SVG Version: 6.00 Build 0)  -->
<svg version="1.1" id="Layer_1" xmlns="http://www.w3.org/2000/svg" xmlns:xlink="http://www.w3.org/1999/xlink" x="0px" y="0px"
	 viewBox="0 0 72 72" style="enable-background:new 0 0 72 72;" xml:space="preserve">
<style type="text/css">
	.st0{fill:#020202;}
	.st1{fill:#979797;}
	.st2{fill:#FFFFFF;}
	.st3{fill:#3399FF;}
</style>
<g>
	<path class="st0" d="M65.54,69.28H7.62c-2.84,0-5.15-2.32-5.15-5.16V9.88c0-2.85,2.31-5.16,5.15-5.16h57.92
		c2.84,0,5.15,2.32,5.15,5.16v54.24C70.69,66.97,68.38,69.28,65.54,69.28z"/>
</g>
<g>
	<rect x="23.25" y="25.05" class="st1" width="4.35" height="21.89"/>
</g>
<g>
	<rect x="15.16" y="25.05" class="st2" width="4.35" height="21.89"/>
</g>
<g>
	<g>
		<rect x="31.35" y="25.05" class="st3" width="4.35" height="21.89"/>
	</g>
</g>
<g>
	<g>
		<rect x="38.86" y="34.6" class="st3" width="18.01" height="3.22"/>
	</g>
	<g>
		<rect x="38.86" y="43.73" class="st3" width="18.98" height="3.22"/>
	</g>
	<g>
		<rect x="38.86" y="25.17" class="st3" width="18.98" height="3.22"/>
	</g>
</g>
<g>
	<path class="st3" d="M65.79,69.28H7.21C4.34,69.28,2,66.89,2,63.95V7.89c0-2.94,2.34-5.34,5.21-5.34h58.58
		c2.87,0,5.21,2.39,5.21,5.34v56.05C71,66.89,68.66,69.28,65.79,69.28z M7.21,5.6c-1.23,0-2.23,1.03-2.23,2.29v56.05
		c0,1.26,1,2.29,2.23,2.29h58.58c1.23,0,2.23-1.03,2.23-2.29V7.89c0-1.26-1-2.29-2.23-2.29H7.21z"/>
</g>
</svg>
