<?xml version="1.0" encoding="utf-8"?>
<!-- Generator: Adobe Illustrator 27.1.1, SVG Export Plug-In . SVG Version: 6.00 Build 0)  -->
<svg version="1.1" id="Layer_1" xmlns="http://www.w3.org/2000/svg" xmlns:xlink="http://www.w3.org/1999/xlink" x="0px" y="0px"
	 viewBox="0 0 72 72" style="enable-background:new 0 0 72 72;" xml:space="preserve">
<style type="text/css">
	.st0{fill:#020202;}
	.st1{fill:#3399FF;}
	.st2{fill:#FFFFFF;stroke:#999999;stroke-miterlimit:10;}
	.st3{fill:#FFFFFF;stroke:#999999;stroke-width:0.75;stroke-miterlimit:10;}
</style>
<g>
	<path class="st0" d="M65.5,69.3H7.6c-2.8,0-5.2-2.3-5.2-5.2V9.9c0-2.8,2.3-5.2,5.2-5.2h57.9c2.8,0,5.2,2.3,5.2,5.2v54.2
		C70.7,67,68.4,69.3,65.5,69.3z"/>
</g>
<g>
	<path class="st1" d="M65.8,69.3H7.2C4.3,69.3,2,66.9,2,64V7.9c0-2.9,2.3-5.3,5.2-5.3h58.6c2.9,0,5.2,2.4,5.2,5.3v56
		C71,66.9,68.7,69.3,65.8,69.3z M7.2,5.6C6,5.6,5,6.6,5,7.9v56c0,1.3,1,2.3,2.2,2.3h58.6c1.2,0,2.2-1,2.2-2.3v-56
		c0-1.3-1-2.3-2.2-2.3H7.2z"/>
</g>
<path class="st2" d="M13.7,22.4c-0.1,0.8-0.1,1.7,0,2.5L12,25.8c-0.6,0.3-0.8,1-0.6,1.5l1.1,2.7c0.2,0.6,0.9,0.9,1.5,0.7l1.8-0.5
	c0.5,0.7,1.1,1.4,1.8,1.9l-0.6,1.9c-0.2,0.6,0.1,1.2,0.7,1.5l2.7,1.2c0.6,0.2,1.2,0,1.6-0.5l0.9-1.6c0.9,0.1,1.9,0.2,2.8,0.1
	l0.9,1.6c0.3,0.6,1,0.8,1.5,0.6l2.7-1.1c0.6-0.2,0.9-0.9,0.7-1.5l-0.5-1.8c0.8-0.6,1.4-1.2,2-1.9l1.7,0.5c0.6,0.2,1.2-0.1,1.5-0.7
	l1.2-2.7c0.2-0.6,0-1.2-0.5-1.6l-1.5-0.9c0.1-0.9,0.2-1.8,0.1-2.7l1.5-0.8c0.6-0.3,0.8-1,0.6-1.5l-1.1-2.7c-0.2-0.6-0.9-0.9-1.5-0.7
	l-1.6,0.4c-0.6-0.8-1.2-1.5-2-2.1l0.5-1.6c0.2-0.6-0.1-1.2-0.7-1.5L28.6,11c-0.6-0.2-1.2,0-1.6,0.5l-0.8,1.5c-1-0.1-2-0.2-3,0
	l-0.8-1.5c-0.3-0.6-1-0.8-1.5-0.6l-2.7,1.1c-0.6,0.2-0.9,0.9-0.7,1.5l0.5,1.7c-0.7,0.6-1.4,1.2-2,1.9l-1.7-0.5
	c-0.6-0.2-1.2,0.1-1.5,0.7l-1.2,2.7c-0.2,0.6,0,1.2,0.5,1.6L13.7,22.4z M26.5,19.4c2.4,1.1,3.5,3.9,2.5,6.3s-3.9,3.5-6.3,2.5
	c-2.4-1.1-3.5-3.9-2.5-6.3C21.3,19.4,24.1,18.3,26.5,19.4z"/>
<path class="st3" d="M30.4,47.5c0.3,1.1,0.8,2.2,1.3,3.2l-1.6,2c-0.5,0.7-0.5,1.6,0.1,2.2l2.8,2.8c0.6,0.6,1.5,0.6,2.2,0.1l2-1.6
	c1,0.6,2.1,1.1,3.3,1.4l0.3,2.6c0.1,0.8,0.8,1.5,1.6,1.5h3.9c0.8,0,1.5-0.6,1.6-1.5l0.3-2.5c1.2-0.3,2.4-0.8,3.5-1.4l1.9,1.5
	c0.7,0.5,1.6,0.5,2.2-0.1l2.8-2.8c0.6-0.6,0.6-1.5,0.1-2.2l-1.5-1.9c0.6-1.1,1.1-2.2,1.4-3.5l2.3-0.3c0.8-0.1,1.5-0.8,1.5-1.6v-3.9
	c0-0.8-0.6-1.5-1.5-1.6l-2.3-0.3c-0.3-1.2-0.8-2.3-1.4-3.4l1.4-1.8c0.5-0.7,0.5-1.6-0.1-2.2L56,29.4c-0.6-0.6-1.5-0.6-2.2-0.1
	L52,30.7c-1.1-0.7-2.3-1.2-3.6-1.5l-0.3-2.2c-0.1-0.8-0.8-1.5-1.6-1.5h-3.9c-0.8,0-1.5,0.6-1.6,1.5l-0.3,2.2
	c-1.3,0.3-2.5,0.9-3.7,1.6l-1.8-1.4c-0.7-0.5-1.6-0.5-2.2,0.1l-2.8,2.8c-0.6,0.6-0.6,1.5-0.1,2.2l1.5,1.9c-0.6,1.1-1.1,2.2-1.4,3.5
	L27.9,40c-0.8,0.1-1.5,0.8-1.5,1.6v3.9c0,0.8,0.6,1.5,1.5,1.6L30.4,47.5z M44.6,36.9c3.6,0,6.5,2.9,6.5,6.5s-2.9,6.5-6.5,6.5
	c-3.6,0-6.5-2.9-6.5-6.5S41,36.9,44.6,36.9z"/>
</svg>
