<?xml version="1.0" encoding="utf-8"?>
<!-- Generator: Adobe Illustrator 27.9.0, SVG Export Plug-In . SVG Version: 6.00 Build 0)  -->
<svg version="1.1" id="Layer_1" xmlns="http://www.w3.org/2000/svg" xmlns:xlink="http://www.w3.org/1999/xlink" x="0px" y="0px"
	 viewBox="0 0 72 72" style="enable-background:new 0 0 72 72;" xml:space="preserve">
<style type="text/css">
	.st0{fill:none;stroke:#FFFFFF;stroke-width:2;stroke-miterlimit:10;}
	.st1{fill:#FFFFFF;}
</style>
<path class="st0" d="M46.6,10.6c1.6,0.8,3,1.7,4.5,2.4c3.2,1.5,6.5,2.7,9.9,3.4c0.5,0.1,1,0.2,1.5,0.2c0.3,0,0.4,0.2,0.4,0.5
	c-0.1,2.9-0.2,5.8-0.4,8.7c-0.2,3.7-1,7.3-1.9,10.8c0,0,0,0,0,0.1c0.5,0,1,0,1.5,0c0.3,0,0.5,0.1,0.6,0.4c1.7,5.9,3.4,11.9,5.1,17.8
	c0.2,0.6,0.3,1.1,0.5,1.8c-0.3,0-0.5,0-0.7,0c-5.3,0-10.7,0-16,0c-0.5,0-0.8,0.2-1.1,0.5c-3.5,4.6-7.6,8.6-12.5,11.8
	c-0.6,0.4-1.2,0.7-1.7,1c-0.3,0.2-0.5,0.1-0.8,0c-3.4-2.2-6.3-4.8-9.1-7.7c-1.6-1.7-3-3.5-4.5-5.3c-0.2-0.2-0.5-0.3-0.8-0.3
	c-5.5,0-11,0-16.5,0c-0.2,0-0.5,0-0.8,0c0.3-1,0.6-2,0.8-2.9c1.6-5.5,3.2-11,4.8-16.6c0.1-0.4,0.3-0.5,0.7-0.5c0.5,0,0.9,0,1.4,0
	c-0.3-1.1-0.6-2.2-0.8-3.3c-0.7-2.9-1.2-5.9-1.4-8.9c-0.2-2.4-0.2-4.9-0.3-7.3c0-0.4,0.1-0.6,0.5-0.6c2.9-0.4,5.7-1.4,8.5-2.4
	c1.4-0.5,3.9-1.7,3.9-1.7s0.3-0.1,0.5-0.2c0.3-0.1,0.6-0.3,0.6-0.3s4.5-2.9,7.2-4.8c1.9-1.4,3.6-3.1,5.2-4.7
	c0.2-0.2,0.4-0.4,0.7-0.7C39.1,5.2,42.6,8.2,46.6,10.6L46.6,10.6z"/>
<path class="st1" d="M27.6,26.1c-1.6-0.9-3.2-1.7-4.8-2.6c-1.3-0.8-2.5-1.8-3.3-3.2c-0.3-0.5-0.4-1-0.7-1.4c0,0,0.1-0.1,0.1-0.1
	c0.1,0,0.2,0,0.2,0.1c2.6,2.2,5.7,3.2,9.1,3.6c0.9,0.1,1.8,0.3,2.6,0.5c1.1,0.3,2,0.8,2.6,1.9c0.1-0.3,0.2-0.4,0.3-0.6
	c0.5-1.2,1.1-2.4,1.6-3.6c0.1-0.3,0.3-0.4,0.7-0.4c0.8,0,1.7,0,2.5,0c0.9,0,1.4,0.6,1.4,1.6c-0.6,0-1.1,0-1.9,0c0.5,1.1,0.9,2,1.3,3
	c0.1,0,0.2,0,0.2,0c0.9-1.4,2.3-1.8,3.8-2.1c1.5-0.2,3-0.4,4.4-0.8c2.1-0.5,4.1-1.4,5.8-2.8c0.1-0.1,0.2-0.2,0.4-0.3
	c0,0,0.1,0,0.2,0c-0.2,0.5-0.3,0.9-0.5,1.3c-0.7,1.3-1.7,2.3-2.9,3.1c-1.5,0.9-3.1,1.7-4.7,2.6c-0.2,0.1-0.4,0.2-0.6,0.4
	c0.3,0,0.7,0.1,1,0c1.6-0.3,3.2-0.7,4.8-1c-0.2,0.7-1,1.5-1.9,1.9c-0.9,0.3-1.8,0.6-2.6,0.9c-0.8,0.3-1.6,0.5-2.4,0.8
	c1.2,0.3,2.4-0.1,3.5,0c-3.1,3-18.8,3-22.8-0.1c1.3,0.1,2.5,0.2,3.7,0.3c0-0.1,0-0.2,0-0.2c-0.2-0.1-0.4-0.2-0.6-0.2
	c-1.2-0.4-2.5-0.7-3.8-1.1c-1-0.3-1.9-0.9-2.5-1.7c-0.1-0.1-0.2-0.3-0.4-0.6c1.5,0.3,2.8,0.6,4.2,0.9C26.4,26.1,27,26.1,27.6,26.1
	C27.6,26.2,27.6,26.2,27.6,26.1z"/>
<path class="st1" d="M48.2,48.8c0,0.2-0.1,0.3,0,0.5c0,0.9,0,1.7,0.1,2.6c0,0.3-0.1,0.5-0.4,0.5c-0.9,0-1.9,0-2.8-0.1
	c-0.2,0-0.5-0.3-0.6-0.5c-0.1-0.6-0.1-1.3-0.1-1.9c0-0.5,0.2-1.1,0.2-1.6c0-1.2-0.2-2.3-1.1-3.2c0.7-0.3,0.9-0.8,0.9-1.5
	c0-0.7,0-1.4,0-2.1c0-0.3,0.1-0.4,0.4-0.4c0.8,0,1.7,0,2.5,0c0.7,0,0.9,0.2,1,0.9c0,0.9,0,1.8,0,2.7c0,0.1,0,0.2,0,0.3
	c0,0,0.1,0,0.1,0c0.2-0.5,0.3-1,0.5-1.5c0.2-0.6,0.5-1.3,0.7-1.9c0.1-0.4,0.4-0.5,0.8-0.5c0.7,0,1.4,0,2.1,0c0.2,0,0.4,0.1,0.7,0.1
	c-0.6,1.5-1.1,2.9-1.8,4.2c-0.2,0.5-0.2,1-0.1,1.5c0.4,1.2,0.8,2.4,1.2,3.6c0.2,0.4,0.5,0.8,0.7,1.2c0.1,0.2,0.2,0.3,0.3,0.6
	c-0.2,0-0.4,0-0.5,0c-0.6,0-1.2,0.1-1.8,0.1c-0.6,0-1.3-0.1-1.8-0.4c-0.3-0.2-0.4-0.8-0.6-1.2c-0.2-0.7-0.5-1.4-0.7-2.2
	C48.3,48.8,48.3,48.8,48.2,48.8z"/>
<path class="st1" d="M31.2,46.8c1.2-0.5,1.1-1.7,1.3-2.7c0.2-0.8,0.3-1.7,0.5-2.5c0.1-0.2,0.2-0.5,0.5-0.5c1.6,0,3.1,0,4.7,0
	c0.1,0,0.2,0,0.2,0c0.3,1.1,0.6,2.2,0.7,3.3c0.1,0.8,0.3,1.5,1,2c0.1,0,0,0.4-0.1,0.5c-0.4,0.3-0.4,0.6-0.3,1c0.3,1.2,0.7,2.4,1,3.6
	c0.1,0.5-0.1,0.9-0.7,0.9c-0.9,0.1-1.8,0.1-2.7,0.2c-0.5,0-0.7-0.3-0.7-0.7c0-0.3,0-0.8-0.1-1c-0.1-0.2-0.6-0.3-0.9-0.3
	c-0.2,0-0.4,0.3-0.4,0.4c-0.1,0.3,0,0.6,0,0.9c0.1,0.4-0.1,0.6-0.5,0.6c-0.9,0-1.8,0-2.7,0c-0.8,0-0.9-0.3-0.8-1
	c0.2-1.1,0.3-2.1,0.5-3.2c0.1-0.6,0-1-0.5-1.4C31.2,47,31.2,46.9,31.2,46.8z M36,44.2c-0.5,1.3-0.6,2.7-0.7,4.1
	c0.4,0,0.7,0.1,1.1,0.1C36.7,46.9,36.3,45.5,36,44.2z"/>
<path class="st1" d="M21.1,46.7c1-0.3,0.6-1.1,0.7-1.7c0.1-0.4,0-0.9-0.1-1.4c-0.5,0-0.9,0-1.4,0c-0.6,0-0.7-0.2-0.7-0.7
	c0-0.1,0-0.3,0-0.4c0.1-0.4,0-0.9,0.2-1.1c0.2-0.2,0.8-0.1,1.2-0.1c2.2,0,4.4,0,6.7,0c0.4,0,0.5,0.2,0.6,0.5c0,0.1,0,0.2,0,0.3
	c0,1.5-0.1,1.6-1.6,1.7c-0.3,0-0.6,0-0.8,0c-0.5,1.1-0.3,2.6,0.6,3.3c-1.2,1.1-0.6,2.5-0.6,3.8c0,1.6,0.1,1.6-1.5,1.7
	c-0.7,0-1.3,0-2,0c-0.5,0-0.8-0.2-0.7-0.7c0.1-1,0.1-2,0.1-3.1c0-0.5,0-1.1-0.1-1.6C21.7,47,21.3,46.9,21.1,46.7z"/>
<path class="st1" d="M35.6,32.6c-0.4,0.4-0.8,0.7-1.3,1.2c-0.4-0.7-0.8-1.3-1.3-2c2.5,0,5,0,7.5,0c-0.4,0.7-0.8,1.3-1.2,2
	c-0.5-0.4-0.9-0.8-1.3-1.2c0,0-0.1,0-0.1,0.1c0.1,0.4,0.2,0.9,0.4,1.3c0.1,0.3,0,0.5-0.2,0.6c0,0-0.1,0-0.1,0.1
	c-1.2,0.7-1.2,0.7-2.4-0.1c-0.1-0.1-0.2-0.3-0.2-0.5c0.1-0.5,0.3-0.9,0.4-1.4C35.6,32.7,35.6,32.6,35.6,32.6z"/>
<path class="st1" d="M20.7,18c0,0-0.1-0.1-0.1-0.1"/>
<path class="st1" d="M27.3,21.5"/>
</svg>
