<?xml version="1.0" encoding="utf-8"?>
<!-- Generator: Adobe Illustrator 26.5.0, SVG Export Plug-In . SVG Version: 6.00 Build 0)  -->
<svg version="1.1" id="Layer_1" xmlns="http://www.w3.org/2000/svg" xmlns:xlink="http://www.w3.org/1999/xlink" x="0px" y="0px"
	 viewBox="0 0 40 40" style="enable-background:new 0 0 40 40;" xml:space="preserve">
<style type="text/css">
	.st0{fill:#D6D6D6;}
</style>
<path class="st0" d="M34.8,14.6l-5,2.9c-2.5-2.5-6-4-9.8-4c-7.8,0-14.1,6.3-14.1,14.1H0.2C0.2,16.7,9.1,7.9,20,7.9
	C25.9,7.9,31.2,10.5,34.8,14.6L34.8,14.6z M36.9,17.4c1.7,2.9,2.8,6.2,2.8,9.8c0,0.1,0,0.3,0,0.4h-5.6c0-0.1,0-0.3,0-0.3
	c0-2.2-0.6-4.3-1.5-6.1L36.9,17.4z M23,27.9c0.2,1.3-0.4,2.6-1.5,3.5c-1.7,1.2-4,0.8-5.2-0.8c-1.2-1.7-0.8-4,0.8-5.2
	c1.1-0.8,2.6-0.9,3.8-0.4l14.6-9.3c0.3-0.2,0.8-0.1,1,0.2c0,0,0,0,0,0.1c0.2,0.3,0.1,0.7-0.1,0.9L23,27.9z"/>
</svg>
