<?xml version="1.0" encoding="utf-8"?>
<!-- Generator: Adobe Illustrator 26.5.0, SVG Export Plug-In . SVG Version: 6.00 Build 0)  -->
<svg version="1.1" id="Layer_1" xmlns="http://www.w3.org/2000/svg" xmlns:xlink="http://www.w3.org/1999/xlink" x="0px" y="0px"
	 viewBox="0 0 200 200" style="enable-background:new 0 0 200 200;" xml:space="preserve">
<style type="text/css">
	.st0{fill:#FFFFFF;stroke:#000000;stroke-width:2.5912;stroke-miterlimit:10;}
	.st1{fill:none;stroke:#000000;stroke-width:3.8868;stroke-miterlimit:10;}
</style>
<path class="st0" d="M100.7,116.6c0.2,0,0.4-0.1,0.5-0.3l4.9-6.9c0.5-0.7,1.2-1,2.1-1l18.2,0.9c0.5,0,0.9,0.5,0.9,1l-0.2,39.3
	l-13.4,5.9l-4.2,11c-0.2,0.5,0.2,1.1,0.7,1.1l21.6,1c1,0,1.8-0.7,1.8-1.7l1.1-57.2c0-1,0.8-1.7,1.7-1.8c19-1.8,25.3-2.1,60.9-5.8
	c0.5,0,0.8-0.4,0.8-0.9c-0.1-1.6-0.2-5-0.3-7.1c0-1.3-0.2-2.5-0.4-3.8l-0.8-4.7c-0.1-0.5-0.5-0.8-1-0.8l-57.6-1.1
	c-1.3,0-2.3-1-2.4-2.3l-2.2-33.8c0-0.6-0.5-1-1.1-0.9l-5.9-0.6c-0.7,0.1-1.2,0.7-1.3,1.4l2.3,34.5c0,0.7-0.5,1.3-1.2,1.3l-16.6,0.6
	c-1,0-1.9-0.7-2.1-1.7c0.5-14.6-6.3-43.3-8-50.1c-0.1-0.4-0.7-0.4-0.8,0"/>
<path class="st0" d="M98.9,31.8c-4.6,16.8-7.2,33.4-6.6,49.5c-0.1,1-1,1.8-2.1,1.7l-16.6-0.6c-0.7,0-1.2-0.6-1.2-1.3l2.2-34.5
	c0-0.7-0.5-1.3-1.3-1.4L67.4,46c-0.6-0.1-1,0.4-1.1,0.9l-2.1,33.8c-0.1,1.2-1.1,2.2-2.4,2.3L4.3,84.2c-0.5,0-0.9,0.4-1,0.8l-0.8,4.7
	c-0.2,1.3-0.3,2.5-0.4,3.8c-0.1,2.2-0.2,5.6-0.2,7.1c0,0.5,0.4,0.9,0.8,0.9c35.6,3.7,41.9,3.9,60.9,5.7c1,0.1,1.7,0.9,1.7,1.8
	c0.2,8.7,1,48.3,1.2,57.2c0,1,0.8,1.7,1.8,1.7l21.6-1.1c0.6,0,0.9-0.6,0.7-1.1l-4.3-11l-13.4-5.9l-0.3-39.3c0-0.5,0.4-0.9,0.9-1
	l18.2-0.9c0.8,0,1.6,0.3,2.1,1l6.1,7.5c0.1,0.2,0.4,0.3,0.6,0.2"/>
<line class="st1" x1="89.6" y1="118" x2="111.7" y2="117.7"/>
<path class="st0" d="M99.7,31.8"/>
</svg>
